<?xml version="1.0" encoding="UTF-8"?>
<svg xmlns="http://www.w3.org/2000/svg" version="1.1" viewBox="0 0 149.71 141.91">
  <defs>
    <style>
      .cls-1 {
        fill: #3e3a39;
      }
    </style>
  </defs>
  <!-- Generator: Adobe Illustrator 28.6.0, SVG Export Plug-In . SVG Version: 1.2.0 Build 709)  -->
  <g>
    <g id="_レイヤー_1" data-name="レイヤー_1">
      <g>
        <path class="cls-1" d="M113.66,99.05h-39.99c-1.58,0-2.86-1.28-2.86-2.86s1.28-2.86,2.86-2.86h39.99c1.58,0,2.86-1.28,2.86-2.86v-57.13c0-1.58-1.28-2.86-2.86-2.86H39.39c-1.58,0-2.86,1.28-2.86,2.86v57.13c0,1.58,1.28,2.86,2.86,2.86h5.71c1.58,0,2.86,1.28,2.86,2.86s-1.28,2.86-2.86,2.86h-5.71c-4.73,0-8.57-3.84-8.57-8.57v-57.13c0-4.73,3.84-8.57,8.57-8.57h74.27c4.73,0,8.57,3.84,8.57,8.57v57.13c0,4.73-3.84,8.57-8.57,8.57h0Z"/>
        <path class="cls-1" d="M82.24,116.19c-3.15,0-5.71,2.56-5.71,5.71s2.56,5.71,5.71,5.71h5.71c3.15,0,5.71-2.56,5.71-5.71s-2.56-5.71-5.71-5.71h-5.71ZM87.95,133.33h-5.71c-6.3,0-11.43-5.13-11.43-11.43s5.13-11.43,11.43-11.43h5.71c6.3,0,11.43,5.13,11.43,11.43s-5.13,11.43-11.43,11.43h0Z"/>
        <path class="cls-1" d="M133.65,81.91h-14.28c-1.58,0-2.86-1.28-2.86-2.86s1.28-2.86,2.86-2.86h14.28c3.15,0,5.71-2.56,5.71-5.71v-17.14c0-3.15-2.56-5.71-5.71-5.71h-14.28c-1.58,0-2.86-1.28-2.86-2.86s1.28-2.86,2.86-2.86h14.28c6.3,0,11.43,5.13,11.43,11.43v17.14c0,6.3-5.13,11.43-11.43,11.43h0Z"/>
        <path class="cls-1" d="M33.68,81.91h-14.28c-6.3,0-11.43-5.13-11.43-11.43v-17.14c0-6.3,5.13-11.43,11.43-11.43h14.28c1.58,0,2.86,1.28,2.86,2.86s-1.28,2.86-2.86,2.86h-14.28c-3.15,0-5.71,2.56-5.71,5.71v17.14c0,3.15,2.56,5.71,5.71,5.71h14.28c1.58,0,2.86,1.28,2.86,2.86s-1.28,2.86-2.86,2.86h0Z"/>
        <path class="cls-1" d="M130.8,47.64c-1.58,0-2.86-1.28-2.86-2.86v-17.14c0-7.88-6.41-14.28-14.28-14.28H39.39c-7.88,0-14.28,6.41-14.28,14.28v17.14c0,1.58-1.28,2.86-2.86,2.86s-2.86-1.28-2.86-2.86v-17.14c0-11.03,8.97-20,20-20h74.27c11.03,0,20,8.97,20,20v17.14c0,1.58-1.28,2.86-2.86,2.86h0Z"/>
        <path class="cls-1" d="M116.52,124.76h-20c-1.58,0-2.86-1.28-2.86-2.86s1.28-2.86,2.86-2.86h20c6.3,0,11.43-5.13,11.43-11.43v-28.57c0-1.58,1.28-2.86,2.86-2.86s2.86,1.28,2.86,2.86v28.57c0,9.45-7.69,17.14-17.14,17.14h0Z"/>
        <path class="cls-1" d="M45.1,127.62c-.37,0-.74-.07-1.09-.21-1.07-.44-1.76-1.49-1.76-2.64v-28.57c0-1.58,1.28-2.86,2.86-2.86s2.86,1.28,2.86,2.86v21.67l23.69-23.69c1.11-1.11,2.93-1.11,4.04,0,1.11,1.11,1.11,2.93,0,4.04l-28.57,28.57c-.55.54-1.28.84-2.02.84h0Z"/>
        <path class="cls-1" d="M99.38,53.35c0-3.16-2.56-5.71-5.71-5.71s-5.71,2.56-5.71,5.71,2.56,5.71,5.71,5.71,5.71-2.56,5.71-5.71h0Z"/>
        <path class="cls-1" d="M65.1,53.35c0-3.16-2.56-5.71-5.71-5.71s-5.71,2.56-5.71,5.71,2.56,5.71,5.71,5.71,5.71-2.56,5.71-5.71h0Z"/>
        <path class="cls-1" d="M76.52,84.77c-7.68,0-14.95-3.63-19.44-9.73-.94-1.26-.66-3.06.61-3.99,1.27-.94,3.06-.66,3.99.61,3.42,4.63,8.97,7.41,14.84,7.41s11.42-2.77,14.84-7.41c.94-1.27,2.73-1.54,3.99-.61,1.27.94,1.54,2.73.61,3.99-4.49,6.1-11.76,9.73-19.44,9.73h0Z"/>
      </g>
    </g>
  </g>
</svg>