<?xml version="1.0" encoding="UTF-8"?>
<svg id="_レイヤー_1" xmlns="http://www.w3.org/2000/svg" version="1.1" viewBox="0 0 211.02 279.21">
  <!-- Generator: Adobe Illustrator 30.0.0, SVG Export Plug-In . SVG Version: 2.1.1 Build 123)  -->
  <defs>
    <style>
      .st0 {
        fill: #4c4948;
      }
    </style>
  </defs>
  <path class="st0" d="M187.43,209.6c-9.57-12.63-22.63-21.14-37.43-26.9-.48-.19-.83-.68-1.25-1.03.18-.1.34-.24.53-.3,4.99-1.36,10.33-2,14.92-4.2,8.82-4.24,17.97-8.39,25.62-14.33,13.42-10.42,18.72-25.75,21.18-42.04.22-1.47-1.51-4.13-2.93-4.69-1.46-.57-4.68.21-5.34,1.39-1.64,2.93-2.31,6.41-3.27,9.7-2.52,8.58-6.23,16.58-12.64,22.92-9.65,9.53-22.03,13.38-34.93,15.91-.71.14-1.43.2-2.14.3.4-.56.72-1.21,1.22-1.66,10.74-9.61,19.39-20.71,25.21-34.02,3.39-7.74,6.01-15.8,4.83-24.06-1.43-10.01-4.28-19.85-7.01-29.62-.44-1.59-3.39-3.38-5.24-3.46-3.09-.14-4.89,2.36-4.14,5.46,1.21,5.07,3.12,9.96,4.33,15.03,2.1,8.85,2.15,17.77-1.36,26.28-4.66,11.3-12.37,20.46-21.34,28.61-.18.16-.39.29-.6.41-.07.04-.14.09-.21.13-.01-.04-.03-.08-.05-.13-.03-.08-.07-.17-.11-.26-.09-.21-.18-.43-.17-.63.7-16.98-4.61-31.8-16.06-44.34-5.64-6.17-12.28-11.01-20.72-12.31-.3-.05-.58-.04-.88-.07V0h-3.88v91.63c-6.1.46-11.46,3.54-16.2,7.54-14.48,12.21-21.36,28.05-21.42,46.93,0,1.1-.13,2.2-.2,3.29-.82-.67-1.64-1.32-2.44-2.02-.62-.54-1.22-1.11-1.8-1.69-8.13-8.05-15.3-16.89-18.81-27.91-4.08-12.79-1.03-25.16,3.39-37.39.62-1.73-.56-5.65-1.86-6.16-1.75-.69-5.94.35-6.43,1.66-2.87,7.52-5.66,15.21-7.15,23.1-2.65,14.01,1.13,27.04,8.01,39.32,5.79,10.34,13.35,19.2,22.24,26.98.27.23.34.69.5,1.04-.2.04-.43.16-.6.1-8.81-2.92-18.05-4.97-26.34-8.98-14.94-7.23-20.95-21.2-24.38-36.5-.82-3.66-2.65-6.13-6.65-5.1-3.15.81-3.9,3.44-3.17,6.5.86,3.62,1.17,7.48,2.64,10.82,3.33,7.55,6.17,15.71,11.21,22.01,5.05,6.3,11.95,11.75,19.11,15.57,8.64,4.61,18.41,7.11,27.69,10.51.48.18.99.29,1.48.43-.44.36-.86.77-1.34,1.06-9.09,5.45-18.61,10.29-27.16,16.48-8.89,6.44-15.63,15.05-18.7,25.97-2.97,10.55-2.84,21.32-1.37,32.02.24,1.73,3.05,4.21,4.85,4.37,3.25.29,4.38-2.62,4.39-5.65,0-3.93-.18-7.87-.07-11.79.26-9.53,2.11-18.64,8.68-25.99,8.54-9.56,19.02-16.44,30.82-21.37.64-.27,1.27-.55,1.93-.75.07-.02.14-.03.21-.02.11,0,.22.03.34.05.08.02.15.04.23.05.04,0,.08,0,.11.02-.13.19-.26.38-.38.57-.13.19-.26.38-.4.56-5.8,7.69-12.1,15.05-17.26,23.14-5.94,9.32-5.42,19.94-2.72,30.15,2.19,8.27,5.6,16.22,8.51,24.3,1.06,2.94,3.06,5.41,6.23,3.91,1.6-.75,3.42-4.11,2.96-5.64-2.32-7.78-6.07-15.18-7.89-23.04-1.3-5.6-1.93-12.29-.06-17.49,4.47-12.45,13.46-22.02,23.8-30.2.1-.08.21-.15.32-.22.34-.2.71-.36,1.06-.55.04.28.07.56.11.84s.08.56.16.83c.99,3.58,1.92,7.19,3.06,10.73.44,1.35,2.28,2.94,1.93,3.74-2.68,6.12-1.17,15.61,3.72,19.66.94.78,2.57.71,3.89,1.03.31-1.37.84-2.73.87-4.11.03-1.83-1.04-4-.37-5.42,1-2.1,2.94-4.97,4.8-5.22,5.27-.71,10.7-.27,16.07-.26.46,0,1.05-.05,1.36.2,3.42,2.78,4.13,6.26,2.98,10.46-.35,1.27.23,2.91.77,4.21.13.3,2.12.28,2.84-.2,5.11-3.46,7.51-11.9,5.34-17.73-.44-1.19-.94-3.09-.36-3.81,3.44-4.21,4.96-8.92,4.75-14.28,0-.23.18-.47.28-.7.22.1.5.14.66.3,5.79,5.89,11.96,11.45,17.23,17.77,5.67,6.78,10.49,14.65,8.36,23.91-2.27,9.84-6.16,19.31-8.83,29.07-.47,1.72,1.07,4.71,2.61,5.97.8.65,4.89-.74,5.37-2.01,3.76-9.9,7.59-19.84,10.23-30.06,2.42-9.39,1.48-19.11-3.95-27.39-5.14-7.83-11.4-14.94-17.16-22.36-.12-.15-.19-.34-.27-.53-.03-.06-.05-.12-.08-.18h.12c.3-.03.63-.12.84,0,7.16,3.94,14.78,7.26,21.3,12.07,5.66,4.16,10.89,9.45,14.84,15.24,5.01,7.34,5.49,16.31,5.12,25.11v7.14c0,3.24.99,6.03,4.67,6.13,3.71.1,4.9-2.86,4.89-5.9-.04-8.59.75-17.42-.95-25.71-1.48-7.23-4.78-14.7-9.24-20.58v.02Z"/>
</svg>