<?xml version="1.0" encoding="UTF-8"?>
<svg id="_レイヤー_1" data-name="レイヤー_1" xmlns="http://www.w3.org/2000/svg" version="1.1" viewBox="0 0 645.75 279.23">
  <!-- Generator: Adobe Illustrator 29.3.1, SVG Export Plug-In . SVG Version: 2.1.0 Build 151)  -->
  <defs>
    <style>
      .st0 {
        fill: #4c4948;
      }
    </style>
  </defs>
  <path class="st0" d="M348.53,178.91c-22.03-3.4-41.87,7.51-51.83,24.85l12.91,5.2c6.55-10.15,17.92-16.96,30.96-16.96s24.34,6.74,30.89,16.89l-66.92,27.04-1.48.58c-7,2.83-9.83,11.24-5.97,17.79,5.97,10.21,15.48,18.11,26.78,22.09,5.27,1.86,10.85,2.83,16.7,2.83s11.43-.96,16.63-2.83c21.39-7.45,36.22-28.97,33.46-53.43-2.44-22.22-20.04-40.65-42.13-44.06ZM340.56,265.49c-12.97,0-24.28-6.74-30.76-16.83l66.79-26.97c.45,2.25.64,4.62.64,7.06,0,20.29-16.44,36.74-36.67,36.74Z"/>
  <path class="st0" d="M234.51,221c7-2.83,9.83-11.24,5.97-17.79-5.97-10.21-15.48-18.11-26.78-22.09-5.27-1.86-10.85-2.83-16.7-2.83s-11.43.96-16.63,2.83c-21.39,7.45-36.22,28.97-33.46,53.43,2.44,22.22,20.04,40.65,42.13,44.06,22.03,3.4,41.87-7.51,51.83-24.85l-12.91-5.2c-6.55,10.15-17.92,16.96-30.96,16.96s-24.34-6.74-30.89-16.89l66.92-27.04,1.48-.58ZM160.97,235.84c-.45-2.25-.64-4.62-.64-7.06,0-20.29,16.44-36.74,36.67-36.74,12.97,0,24.28,6.74,30.76,16.83l-66.79,26.97Z"/>
  <path class="st0" d="M50.48,180.33C22.61,180.33,0,202.87,0,230.74v45.66h13.74v-45.66c0-20.23,16.44-36.67,36.74-36.67s36.74,16.44,36.74,36.67v45.66h13.74v-45.66c0-27.87-22.61-50.42-50.48-50.42Z"/>
  <path class="st0" d="M315.79,146.44c5.27,1.86,10.85,2.83,16.7,2.83s11.43-.96,16.63-2.83c21.39-7.45,36.22-28.97,33.46-53.43-2.44-22.22-20.04-40.65-42.13-44.06-22.03-3.4-41.87,7.51-51.83,24.85l12.91,5.2c6.55-10.15,17.92-16.96,30.96-16.96s24.34,6.74,30.83,16.89l-66.86,27.04-1.48.58c-7,2.83-9.83,11.24-5.97,17.79,5.97,10.21,15.48,18.11,26.78,22.09ZM368.46,91.72c.45,2.25.71,4.62.71,7.06,0,20.29-16.44,36.74-36.67,36.74-12.97,0-24.28-6.74-30.83-16.83l66.79-26.97Z"/>
  <path class="st0" d="M185.35,135.39v-34.62c0-20.23,16.44-36.67,36.67-36.67v-13.74c-27.81,0-50.42,22.54-50.42,50.42v45.66h13.74v-11.05Z"/>
  <path class="st0" d="M622.15,209.6c-9.57-12.63-22.63-21.14-37.43-26.9-.48-.19-.83-.68-1.25-1.03.18-.1.34-.24.53-.3,4.99-1.36,10.33-2,14.92-4.2,8.82-4.24,17.97-8.39,25.62-14.33,13.42-10.42,18.72-25.75,21.18-42.04.22-1.47-1.51-4.13-2.93-4.69-1.46-.57-4.68.21-5.34,1.39-1.64,2.93-2.31,6.41-3.27,9.7-2.52,8.58-6.23,16.58-12.64,22.92-9.65,9.53-22.03,13.38-34.93,15.91-.71.14-1.43.2-2.14.3.4-.56.72-1.21,1.22-1.66,10.74-9.61,19.39-20.71,25.21-34.02,3.39-7.74,6.01-15.8,4.83-24.06-1.43-10.01-4.28-19.85-7.01-29.62-.44-1.59-3.39-3.38-5.24-3.46-3.09-.14-4.89,2.36-4.14,5.46,1.21,5.07,3.12,9.96,4.33,15.03,2.1,8.85,2.15,17.77-1.36,26.28-4.66,11.3-12.37,20.46-21.34,28.61-.18.16-.39.29-.6.41-.07.04-.14.09-.21.13-.01-.04-.03-.08-.05-.13-.03-.08-.07-.17-.11-.26-.09-.21-.18-.43-.17-.63.7-16.98-4.61-31.8-16.06-44.34-5.64-6.17-12.28-11.01-20.72-12.31-.3-.05-.58-.04-.88-.07V0h-3.88v91.63c-6.1.46-11.46,3.54-16.2,7.54-14.48,12.21-21.36,28.05-21.42,46.93,0,1.1-.13,2.2-.2,3.29-.82-.67-1.64-1.32-2.44-2.02-.62-.54-1.22-1.11-1.8-1.69-8.13-8.05-15.3-16.89-18.81-27.91-4.08-12.79-1.03-25.16,3.39-37.39.62-1.73-.56-5.65-1.86-6.16-1.75-.69-5.94.35-6.43,1.66-2.87,7.52-5.66,15.21-7.15,23.1-2.65,14.01,1.13,27.04,8.01,39.32,5.79,10.34,13.35,19.2,22.24,26.98.27.23.34.69.5,1.04-.2.04-.43.16-.6.1-8.81-2.92-18.05-4.97-26.34-8.98-14.94-7.23-20.95-21.2-24.38-36.5-.82-3.66-2.65-6.13-6.65-5.1-3.15.81-3.9,3.44-3.17,6.5.86,3.62,1.17,7.48,2.64,10.82,3.33,7.55,6.17,15.71,11.21,22.01,5.05,6.3,11.95,11.75,19.11,15.57,8.64,4.61,18.41,7.11,27.69,10.51.48.18.99.29,1.48.43-.44.36-.86.77-1.34,1.06-9.09,5.45-18.61,10.29-27.16,16.48-8.89,6.44-15.63,15.05-18.7,25.97-2.97,10.55-2.84,21.32-1.37,32.02.24,1.73,3.05,4.21,4.85,4.37,3.25.29,4.38-2.62,4.39-5.65,0-3.93-.18-7.87-.07-11.79.26-9.53,2.11-18.64,8.68-25.99,8.54-9.56,19.02-16.44,30.82-21.37.64-.27,1.27-.55,1.93-.75.07-.02.14-.03.21-.02.11,0,.22.03.34.05.08.02.15.04.23.05.04,0,.08.01.11.02-.13.19-.26.38-.38.57-.13.19-.26.38-.4.56-5.8,7.69-12.1,15.05-17.26,23.14-5.94,9.32-5.42,19.94-2.72,30.15,2.19,8.27,5.6,16.22,8.51,24.3,1.06,2.94,3.06,5.41,6.23,3.91,1.6-.75,3.42-4.11,2.96-5.64-2.32-7.78-6.07-15.18-7.89-23.04-1.3-5.6-1.93-12.29-.06-17.49,4.47-12.45,13.46-22.02,23.8-30.2.1-.08.21-.15.32-.22.34-.2.71-.36,1.06-.55.04.28.07.56.11.84.04.28.08.56.16.83.99,3.58,1.92,7.19,3.06,10.73.44,1.35,2.28,2.94,1.93,3.74-2.68,6.12-1.17,15.61,3.72,19.66.94.78,2.57.71,3.89,1.03.31-1.37.84-2.73.87-4.11.03-1.83-1.04-4-.37-5.42,1-2.1,2.94-4.97,4.8-5.22,5.27-.71,10.7-.27,16.07-.26.46,0,1.05-.05,1.36.2,3.42,2.78,4.13,6.26,2.98,10.46-.35,1.27.23,2.91.77,4.21.13.3,2.12.28,2.84-.2,5.11-3.46,7.51-11.9,5.34-17.73-.44-1.19-.94-3.09-.36-3.81,3.44-4.21,4.96-8.92,4.75-14.28,0-.23.18-.47.28-.7.22.1.5.14.66.3,5.79,5.89,11.96,11.45,17.23,17.77,5.67,6.78,10.49,14.65,8.36,23.91-2.27,9.84-6.16,19.31-8.83,29.07-.47,1.72,1.07,4.71,2.61,5.97.8.65,4.89-.74,5.37-2.01,3.76-9.9,7.59-19.84,10.23-30.06,2.42-9.39,1.48-19.11-3.95-27.39-5.14-7.83-11.4-14.94-17.16-22.36-.12-.15-.19-.34-.27-.53-.03-.06-.05-.12-.08-.18.04,0,.08,0,.12,0,.3-.03.63-.12.84,0,7.16,3.94,14.78,7.26,21.3,12.07,5.66,4.16,10.89,9.45,14.84,15.24,5.01,7.34,5.49,16.31,5.12,25.11,0,2.38,0,4.76,0,7.14,0,3.24.99,6.03,4.67,6.13,3.71.1,4.9-2.86,4.89-5.9-.04-8.59.75-17.42-.95-25.71-1.48-7.23-4.78-14.7-9.24-20.58Z"/>
  <path class="st0" d="M10.37,106.55c-7,2.83-9.83,11.24-5.97,17.79,5.97,10.21,15.48,18.11,26.78,22.09,5.27,1.86,10.85,2.83,16.7,2.83s11.43-.96,16.63-2.83c21.39-7.45,36.22-28.97,33.46-53.43-2.44-22.22-20.04-40.65-42.13-44.06-22.03-3.4-41.87,7.51-51.83,24.85l12.91,5.2c6.55-10.15,17.92-16.96,30.96-16.96s24.34,6.74,30.89,16.89L11.84,105.98l-1.48.58ZM43.1,124.65l7.79,7.79-1.26,3.04c-.58.03-1.17.04-1.76.04-1.53,0-3.04-.1-4.51-.28l-7.56-7.56,7.31-3.03ZM62.37,124.94l3.4-3.4,5.57,2.31-6.66,6.66-2.31-5.57ZM56.4,115.58l-3.87-1.6,2.27-2.27,1.61,3.87ZM56.58,110.96h3.21l-1.61,3.88-1.61-3.88ZM59.79,123.75h-3.21l1.6-3.87,1.6,3.87ZM59.96,119.14l3.87,1.6-2.27,2.27-1.6-3.87ZM60.7,117.36l3.87-1.6v3.21l-3.87-1.6ZM59.96,115.58l1.6-3.87,2.27,2.27-3.88,1.61ZM60.59,109.04h-4.81l-2.12-5.11,1.15-.46h8.08l-2.31,5.57ZM51.88,104.65l2.12,5.12-3.4,3.4-5.57-2.31,5.78-5.78,1.06-.43ZM55.67,117.36l-3.87,1.6v-3.21l3.87,1.6ZM56.4,119.14l-1.6,3.87-2.27-2.27,3.87-1.6ZM55.78,125.68h4.81l2.31,5.57h-9.42l2.31-5.57ZM52.68,133.17h8.09c-2.84,1.07-5.85,1.8-8.98,2.13l.88-2.13ZM73.26,124.65l.46.19c-1.34,1.34-2.79,2.56-4.32,3.68l3.87-3.87ZM66.5,119.76v-4.81l5.57-2.31v9.42l-5.57-2.31ZM65.77,113.17l-3.4-3.4,2.31-5.57,6.66,6.66-5.57,2.31ZM63.69,101.54h-4.11l4.93-1.99-.83,1.99ZM43.1,110.07l-2.29-.95,5.43-2.19-3.14,3.14ZM49.86,114.95v4.81l-5.57,2.31v-9.42l5.57,2.31ZM50.6,121.54l3.4,3.4-2.31,5.57-6.66-6.66,5.57-2.31ZM75.14,123.34l-1.14-.47v-11.02l7.31-3.03v5.04c-1.57,3.48-3.65,6.67-6.17,9.47ZM83.24,108.02l.16-.06c-.05.19-.11.37-.16.55v-.49ZM84.55,98.78c0,2.35-.23,4.65-.65,6.88l-1.4.58-9.94-9.94,6.92-2.8,5.06,5.06c0,.07,0,.14,0,.22ZM80.57,107.04l-7.31,3.03-7.79-7.79,1.55-3.74,3.59-1.45,9.96,9.96ZM38.26,110.15l4.1,1.7v11.02l-7.31,3.03v-14.45l3.21-1.29ZM33.13,126.69l-5.88,2.43c-.33-.23-.67-.45-1-.69v-13.44l6.87-2.78v14.47ZM29.24,130.39l4.64-1.92,6.2,6.2c-3.88-.85-7.53-2.31-10.83-4.28ZM83.9,91.72c.26,1.3.42,2.64.53,4.01l-3.01-3.01,2.48-1ZM24.33,115.78v11.13c-2.8-2.36-5.24-5.13-7.22-8.22l7.22-2.92Z"/>
</svg>